<?xml version="1.0" standalone="no"?>
<!DOCTYPE svg PUBLIC "-//W3C//DTD SVG 20010904//EN"
 "http://www.w3.org/TR/2001/REC-SVG-20010904/DTD/svg10.dtd">
<svg version="1.0" xmlns="http://www.w3.org/2000/svg"
 width="217.933963pt" height="269.000000pt" viewBox="0 0 217.933963 269.000000"
 preserveAspectRatio="xMidYMid meet">
<g transform="translate(-28.911992,271.000000) scale(0.100000,-0.100000)"
fill="#000000" stroke="none">
<path d="M810 2445 l0 -265 -192 0 -193 0 3 -180 c3 -171 4 -180 22 -180 19 0
20 8 20 155 l0 155 170 0 170 0 0 -155 0 -155 25 0 25 0 0 155 0 155 510 0
509 0 3 -152 c3 -150 3 -153 26 -156 l22 -3 0 155 0 156 170 0 170 0 0 -155 0
-155 25 0 25 0 0 180 0 180 -195 0 -195 0 0 265 0 265 -560 0 -560 0 0 -265z
m1070 -25 l0 -240 -510 0 -510 0 0 240 0 240 510 0 510 0 0 -240z" fill="#fd6600"/>
<path d="M2199 1655 c-56 -18 -105 -70 -115 -121 -13 -70 7 -104 130 -219 66
-61 117 -117 121 -132 20 -80 -107 -117 -241 -69 l-39 13 3 -52 4 -52 85 -13
c187 -28 307 27 321 145 7 63 -27 115 -138 210 -50 43 -98 91 -106 106 -20 39
-4 76 41 94 43 19 76 19 144 1 l53 -14 -7 51 c-3 29 -8 53 -9 55 -2 1 -48 5
-102 7 -72 4 -112 1 -145 -10z" fill="#fd6600"/>
<path d="M309 1498 c0 -90 -2 -172 -4 -183 -1 -11 -6 -84 -9 -162 l-7 -143 65
0 64 0 6 63 c3 34 8 163 11 287 3 124 8 242 11 263 l7 37 -72 0 -71 0 -1 -162z" fill="#fd6600"/>
<path d="M600 1569 c0 -77 -17 -464 -23 -534 -2 -18 5 -20 57 -23 41 -2 62 1
67 10 5 7 9 76 9 153 0 77 3 198 7 268 l6 129 98 -4 c87 -3 100 -6 123 -27 19
-18 26 -35 26 -62 0 -71 -66 -119 -163 -119 l-37 0 58 -117 c32 -65 69 -144
81 -175 l23 -58 69 0 c38 0 69 3 69 7 0 4 -32 64 -71 135 -39 71 -72 136 -73
144 -1 11 15 21 47 32 142 46 170 241 44 310 -26 14 -66 17 -224 20 l-193 4 0
-93z" fill="#fd6600"/>
<path d="M1221 1378 c-12 -156 -25 -302 -28 -326 l-6 -43 54 3 54 3 15 252
c14 223 20 277 34 262 4 -4 77 -249 123 -414 l28 -100 60 0 60 0 96 254 c53
140 102 257 108 259 10 3 11 -53 5 -257 l-7 -261 57 0 56 0 0 153 c0 83 3 230
7 325 l6 172 -89 0 -90 0 -76 -192 c-42 -106 -84 -214 -93 -240 -21 -57 -40
-62 -49 -12 -4 19 -29 108 -56 197 -26 89 -53 181 -59 205 l-12 42 -87 0 -88
0 -23 -282z" fill="#fd6600"/>
<path d="M428 715 l3 -165 189 0 190 0 0 -265 0 -265 560 0 560 0 0 265 0 265
195 0 195 0 0 165 0 165 -25 0 -25 0 0 -140 0 -140 -170 0 -170 0 0 140 0 140
-25 0 -25 0 0 -140 0 -140 -510 0 -510 0 0 140 0 140 -25 0 -25 0 0 -140 0
-140 -170 0 -170 0 0 140 c0 139 0 140 -22 140 l-23 0 3 -165z m1450 -402 l-3
-238 -505 0 -505 0 -3 238 -2 237 510 0 510 0 -2 -237z" fill="#fd6600"/>
</g>
</svg>
